CrispyWide Thin-MinGrade-shadow.ufo
<glyph name="exclam" format="2">
  <advance width="227"/>
  <unicode hex="0021"/>
  <outline>
    <contour>
      <point x="137" y="1602" type="line"/>
      <point x="130" y="1602" type="line"/>
      <point x="-21" y="1451" type="line"/>
      <point x="-21" y="-108" type="line"/>
      <point x="-14" y="-108" type="line"/>
      <point x="137" y="43" type="line"/>
    </contour>
    <contour>
      <point x="-16" y="-104" type="line"/>
      <point x="-17" y="-104" type="line"/>
      <point x="-17" y="1449" type="line"/>
      <point x="132" y="1598" type="line"/>
      <point x="133" y="1598" type="line"/>
      <point x="133" y="45" type="line"/>
    </contour>
    <contour>
      <point x="242" y="14" type="line"/>
      <point x="227" y="14" type="line"/>
      <point x="226" y="7" type="line"/>
      <point x="226" y="-2" type="line"/>
      <point x="242" y="-2" type="line"/>
    </contour>
    <contour>
      <point x="230" y="2" type="line"/>
      <point x="230" y="7" type="line"/>
      <point x="231" y="10" type="line"/>
      <point x="238" y="10" type="line"/>
      <point x="238" y="2" type="line"/>
    </contour>
    <component base="period" xOffset="101"/>
    <component base="period" xOffset="101"/>
    <component base="period" xOffset="101"/>
    <component base="period" xOffset="101"/>
  </outline>
</glyph>
<glyph name="comma" format="2">
  <advance width="306"/>
  <unicode hex="002C"/>
  <outline>
    <contour>
      <point x="235" y="8" type="line"/>
      <point x="228" y="8" type="line"/>
      <point x="77" y="-143" type="line"/>
      <point x="77" y="-152" type="line"/>
      <point x="78" y="-152" type="line"/>
      <point x="78" y="-776" type="line"/>
      <point x="83" y="-776" type="line"/>
      <point x="234" y="-625" type="line"/>
      <point x="235" y="0" type="line"/>
    </contour>
    <contour>
      <point x="82" y="-148" type="line"/>
      <point x="81" y="-148" type="line"/>
      <point x="81" y="-145" type="line"/>
      <point x="230" y="4" type="line"/>
      <point x="231" y="4" type="line"/>
      <point x="231" y="0" type="line"/>
      <point x="230" y="-623" type="line"/>
      <point x="82" y="-771" type="line"/>
    </contour>
  </outline>
</glyph>
<glyph name="zero" format="2">
  <advance width="4175"/>
  <unicode hex="0030"/>
  <outline>
    <contour>
      <point x="221" y="1451" type="line"/>
      <point x="221" y="-152" type="line"/>
      <point x="3824" y="-152" type="line"/>
      <point x="3975" y="-1" type="line"/>
      <point x="3975" y="1602" type="line"/>
      <point x="372" y="1602" type="line"/>
    </contour>
    <contour>
      <point x="225" y="-148" type="line"/>
      <point x="225" y="1449" type="line"/>
      <point x="374" y="1598" type="line"/>
      <point x="3971" y="1598" type="line"/>
      <point x="3971" y="1" type="line"/>
      <point x="3822" y="-148" type="line"/>
    </contour>
    <contour>
      <point x="3821" y="2" type="line"/>
      <point x="3821" y="1448" type="line"/>
      <point x="375" y="1448" type="line"/>
      <point x="375" y="2" type="line"/>
    </contour>
    <contour>
      <point x="379" y="6" type="line"/>
      <point x="379" y="1444" type="line"/>
      <point x="3817" y="1444" type="line"/>
      <point x="3817" y="6" type="line"/>
    </contour>
  </outline>
</glyph>
<glyph name="two" format="2">
  <advance width="3744"/>
  <unicode hex="0032"/>
  <outline>
    <contour>
      <point x="169" y="803" type="line"/>
      <point x="18" y="652" type="line"/>
      <point x="18" y="-152" type="line"/>
      <point x="3591" y="-152" type="line"/>
      <point x="3742" y="-1" type="line"/>
      <point x="3742" y="521" type="line"/>
      <point x="3735" y="521" type="line"/>
      <point x="3584" y="370" type="line"/>
      <point x="3584" y="6" type="line"/>
      <point x="176" y="6" type="line"/>
      <point x="176" y="646" type="line"/>
      <point x="3595" y="646" type="line"/>
      <point x="3746" y="797" type="line"/>
      <point x="3746" y="1602" type="line"/>
      <point x="172" y="1602" type="line"/>
      <point x="21" y="1451" type="line"/>
      <point x="21" y="926" type="line"/>
      <point x="28" y="926" type="line"/>
      <point x="179" y="1077" type="line"/>
      <point x="179" y="1444" type="line"/>
      <point x="3588" y="1444" type="line"/>
      <point x="3588" y="803" type="line"/>
    </contour>
    <contour>
      <point x="172" y="650" type="line"/>
      <point x="172" y="2" type="line"/>
      <point x="3588" y="2" type="line"/>
      <point x="3588" y="368" type="line"/>
      <point x="3737" y="517" type="line"/>
      <point x="3738" y="517" type="line"/>
      <point x="3738" y="1" type="line"/>
      <point x="3589" y="-148" type="line"/>
      <point x="22" y="-148" type="line"/>
      <point x="22" y="650" type="line"/>
      <point x="171" y="799" type="line"/>
      <point x="3592" y="799" type="line"/>
      <point x="3592" y="1448" type="line"/>
      <point x="175" y="1448" type="line"/>
      <point x="175" y="1079" type="line"/>
      <point x="26" y="930" type="line"/>
      <point x="25" y="930" type="line"/>
      <point x="25" y="1449" type="line"/>
      <point x="174" y="1598" type="line"/>
      <point x="3742" y="1598" type="line"/>
      <point x="3742" y="799" type="line"/>
      <point x="3593" y="650" type="line"/>
    </contour>
  </outline>
</glyph>
<glyph name="three" format="2">
  <advance width="3827"/>
  <unicode hex="0033"/>
  <outline>
    <contour>
      <point x="883" y="804" type="line"/>
      <point x="732" y="653" type="line"/>
      <point x="732" y="646" type="line"/>
      <point x="3613" y="646" type="line"/>
      <point x="3613" y="6" type="line"/>
      <point x="177" y="6" type="line"/>
      <point x="177" y="520" type="line"/>
      <point x="170" y="520" type="line"/>
      <point x="19" y="369" type="line"/>
      <point x="19" y="-152" type="line"/>
      <point x="3620" y="-152" type="line"/>
      <point x="3771" y="-1" type="line"/>
      <point x="3771" y="804" type="line"/>
      <point x="3423" y="804" type="line"/>
      <point x="3423" y="1602" type="line"/>
      <point x="249" y="1602" type="line"/>
      <point x="98" y="1451" type="line"/>
      <point x="98" y="926" type="line"/>
      <point x="105" y="926" type="line"/>
      <point x="256" y="1077" type="line"/>
      <point x="256" y="1444" type="line"/>
      <point x="3265" y="1444" type="line"/>
      <point x="3265" y="804" type="line"/>
    </contour>
    <contour>
      <point x="3269" y="800" type="line"/>
      <point x="3269" y="1448" type="line"/>
      <point x="252" y="1448" type="line"/>
      <point x="252" y="1079" type="line"/>
      <point x="103" y="930" type="line"/>
      <point x="102" y="930" type="line"/>
      <point x="102" y="1449" type="line"/>
      <point x="251" y="1598" type="line"/>
      <point x="3419" y="1598" type="line"/>
      <point x="3419" y="800" type="line"/>
      <point x="3767" y="800" type="line"/>
      <point x="3767" y="1" type="line"/>
      <point x="3618" y="-148" type="line"/>
      <point x="23" y="-148" type="line"/>
      <point x="23" y="367" type="line"/>
      <point x="172" y="516" type="line"/>
      <point x="173" y="516" type="line"/>
      <point x="173" y="2" type="line"/>
      <point x="3617" y="2" type="line"/>
      <point x="3617" y="650" type="line"/>
      <point x="736" y="650" type="line"/>
      <point x="736" y="651" type="line"/>
      <point x="885" y="800" type="line"/>
    </contour>
  </outline>
</glyph>
<glyph name="four" format="2">
  <advance width="3751"/>
  <unicode hex="0034"/>
  <outline>
    <contour>
      <point x="3753" y="804" type="line"/>
      <point x="3366" y="804" type="line"/>
      <point x="3366" y="1602" type="line"/>
      <point x="3359" y="1602" type="line"/>
      <point x="3208" y="1451" type="line"/>
      <point x="3208" y="804" type="line"/>
      <point x="176" y="804" type="line"/>
      <point x="176" y="1679" type="line"/>
      <point x="169" y="1679" type="line"/>
      <point x="18" y="1528" type="line"/>
      <point x="18" y="646" type="line"/>
      <point x="3208" y="646" type="line"/>
      <point x="3208" y="-152" type="line"/>
      <point x="3215" y="-152" type="line"/>
      <point x="3366" y="-1" type="line"/>
      <point x="3366" y="646" type="line"/>
      <point x="3602" y="646" type="line"/>
      <point x="3753" y="797" type="line"/>
    </contour>
    <contour>
      <point x="3212" y="650" type="line"/>
      <point x="22" y="650" type="line"/>
      <point x="22" y="1526" type="line"/>
      <point x="171" y="1675" type="line"/>
      <point x="172" y="1675" type="line"/>
      <point x="172" y="800" type="line"/>
      <point x="3212" y="800" type="line"/>
      <point x="3212" y="1449" type="line"/>
      <point x="3361" y="1598" type="line"/>
      <point x="3362" y="1598" type="line"/>
      <point x="3362" y="800" type="line"/>
      <point x="3749" y="800" type="line"/>
      <point x="3749" y="799" type="line"/>
      <point x="3600" y="650" type="line"/>
      <point x="3362" y="650" type="line"/>
      <point x="3362" y="1" type="line"/>
      <point x="3213" y="-148" type="line"/>
      <point x="3212" y="-148" type="line"/>
    </contour>
  </outline>
</glyph>
<glyph name="five" format="2">
  <advance width="3762"/>
  <unicode hex="0035"/>
  <outline>
    <contour>
      <point x="3764" y="-1" type="line"/>
      <point x="3764" y="804" type="line"/>
      <point x="177" y="804" type="line"/>
      <point x="177" y="1444" type="line"/>
      <point x="3613" y="1444" type="line"/>
      <point x="3764" y="1595" type="line"/>
      <point x="3764" y="1602" type="line"/>
      <point x="170" y="1602" type="line"/>
      <point x="19" y="1451" type="line"/>
      <point x="19" y="646" type="line"/>
      <point x="3606" y="646" type="line"/>
      <point x="3606" y="6" type="line"/>
      <point x="178" y="6" type="line"/>
      <point x="178" y="497" type="line"/>
      <point x="171" y="497" type="line"/>
      <point x="20" y="346" type="line"/>
      <point x="20" y="-152" type="line"/>
      <point x="3613" y="-152" type="line"/>
    </contour>
    <contour>
      <point x="174" y="2" type="line"/>
      <point x="3610" y="2" type="line"/>
      <point x="3610" y="650" type="line"/>
      <point x="23" y="650" type="line"/>
      <point x="23" y="1449" type="line"/>
      <point x="172" y="1598" type="line"/>
      <point x="3760" y="1598" type="line"/>
      <point x="3760" y="1597" type="line"/>
      <point x="3611" y="1448" type="line"/>
      <point x="173" y="1448" type="line"/>
      <point x="173" y="800" type="line"/>
      <point x="3760" y="800" type="line"/>
      <point x="3760" y="1" type="line"/>
      <point x="3611" y="-148" type="line"/>
      <point x="24" y="-148" type="line"/>
      <point x="24" y="344" type="line"/>
      <point x="173" y="493" type="line"/>
      <point x="174" y="493" type="line"/>
    </contour>
  </outline>
</glyph>
<glyph name="six" format="2">
  <advance width="3826"/>
  <unicode hex="0036"/>
  <outline>
    <contour>
      <point x="3828" y="-1" type="line"/>
      <point x="3828" y="804" type="line"/>
      <point x="234" y="804" type="line"/>
      <point x="234" y="1206" type="line"/>
      <point x="569" y="1444" type="line"/>
      <point x="3669" y="1444" type="line"/>
      <point x="3669" y="928" type="line"/>
      <point x="3676" y="928" type="line"/>
      <point x="3827" y="1079" type="line"/>
      <point x="3827" y="1602" type="line"/>
      <point x="715" y="1602" type="line"/>
      <point x="227" y="1255" type="line"/>
      <point x="76" y="1104" type="line"/>
      <point x="76" y="-152" type="line"/>
      <point x="3677" y="-152" type="line"/>
    </contour>
    <contour>
      <point x="230" y="1208" type="line"/>
      <point x="230" y="800" type="line"/>
      <point x="3824" y="800" type="line"/>
      <point x="3824" y="1" type="line"/>
      <point x="3675" y="-148" type="line"/>
      <point x="80" y="-148" type="line"/>
      <point x="80" y="1102" type="line"/>
      <point x="229" y="1251" type="line"/>
      <point x="717" y="1598" type="line"/>
      <point x="3823" y="1598" type="line"/>
      <point x="3823" y="1081" type="line"/>
      <point x="3674" y="932" type="line"/>
      <point x="3673" y="932" type="line"/>
      <point x="3673" y="1448" type="line"/>
      <point x="567" y="1448" type="line"/>
    </contour>
    <contour>
      <point x="3674" y="2" type="line"/>
      <point x="3674" y="650" type="line"/>
      <point x="230" y="650" type="line"/>
      <point x="230" y="2" type="line"/>
    </contour>
    <contour>
      <point x="234" y="6" type="line"/>
      <point x="234" y="646" type="line"/>
      <point x="3670" y="646" type="line"/>
      <point x="3670" y="6" type="line"/>
    </contour>
  </outline>
</glyph>
<glyph name="seven" format="2">
  <advance width="3767"/>
  <unicode hex="0037"/>
  <outline>
    <contour>
      <point x="26" y="850" type="line"/>
      <point x="177" y="1001" type="line"/>
      <point x="177" y="1444" type="line"/>
      <point x="3611" y="1444" type="line"/>
      <point x="3611" y="1178" type="line"/>
      <point x="1969" y="2" type="line"/>
      <point x="1815" y="-152" type="line"/>
      <point x="1825" y="-152" type="line"/>
      <point x="3619" y="1132" type="line"/>
      <point x="3770" y="1283" type="line"/>
      <point x="3770" y="1602" type="line"/>
      <point x="170" y="1602" type="line"/>
      <point x="19" y="1451" type="line"/>
      <point x="19" y="850" type="line"/>
    </contour>
    <contour>
      <point x="3615" y="1176" type="line"/>
      <point x="3615" y="1448" type="line"/>
      <point x="173" y="1448" type="line"/>
      <point x="173" y="1003" type="line"/>
      <point x="24" y="854" type="line"/>
      <point x="23" y="854" type="line"/>
      <point x="23" y="1449" type="line"/>
      <point x="172" y="1598" type="line"/>
      <point x="3766" y="1598" type="line"/>
      <point x="3766" y="1285" type="line"/>
      <point x="3617" y="1136" type="line"/>
      <point x="1829" y="-144" type="line"/>
      <point x="1971" y="-2" type="line"/>
    </contour>
  </outline>
</glyph>
<glyph name="A" format="2">
  <advance width="3981"/>
  <unicode hex="0041"/>
  <outline>
    <contour>
      <point x="83" y="-152" type="line"/>
      <point x="234" y="-1" type="line"/>
      <point x="234" y="645" type="line"/>
      <point x="3622" y="645" type="line"/>
      <point x="3622" y="-152" type="line"/>
      <point x="3629" y="-152" type="line"/>
      <point x="3780" y="-1" type="line"/>
      <point x="3780" y="1602" type="line"/>
      <point x="711" y="1602" type="line"/>
      <point x="561" y="1451" type="line"/>
      <point x="561" y="1451" type="line"/>
      <point x="561" y="1451" type="line"/>
      <point x="76" y="965" type="line"/>
      <point x="76" y="-152" type="line"/>
    </contour>
    <contour>
      <point x="563" y="1448" type="line"/>
      <point x="259" y="1143" type="line"/>
      <point x="563" y="1449" type="line"/>
      <point x="713" y="1598" type="line"/>
      <point x="3776" y="1598" type="line"/>
      <point x="3776" y="1" type="line"/>
      <point x="3627" y="-148" type="line"/>
      <point x="3626" y="-148" type="line"/>
      <point x="3626" y="649" type="line"/>
      <point x="230" y="649" type="line"/>
      <point x="230" y="1" type="line"/>
      <point x="81" y="-148" type="line"/>
      <point x="80" y="-148" type="line"/>
      <point x="80" y="963" type="line"/>
      <point x="230" y="1114" type="line"/>
      <point x="230" y="799" type="line"/>
      <point x="3626" y="799" type="line"/>
      <point x="3626" y="1448" type="line"/>
    </contour>
    <contour>
      <point x="234" y="803" type="line"/>
      <point x="234" y="1112" type="line"/>
      <point x="565" y="1444" type="line"/>
      <point x="3622" y="1444" type="line"/>
      <point x="3622" y="803" type="line"/>
    </contour>
  </outline>
</glyph>
<glyph name="C" format="2">
  <advance width="3591"/>
  <unicode hex="0043"/>
  <outline>
    <contour>
      <point x="3587" y="1602" type="line"/>
      <point x="714" y="1602" type="line"/>
      <point x="564" y="1451" type="line"/>
      <point x="564" y="1451" type="line"/>
      <point x="564" y="1451" type="line"/>
      <point x="79" y="965" type="line"/>
      <point x="79" y="-152" type="line"/>
      <point x="3439" y="-152" type="line"/>
      <point x="3590" y="-1" type="line"/>
      <point x="3590" y="326" type="line"/>
      <point x="3583" y="326" type="line"/>
      <point x="3432" y="175" type="line"/>
      <point x="3432" y="6" type="line"/>
      <point x="237" y="6" type="line"/>
      <point x="237" y="1111" type="line"/>
      <point x="569" y="1444" type="line"/>
      <point x="3429" y="1444" type="line"/>
      <point x="3429" y="819" type="line"/>
      <point x="3436" y="819" type="line"/>
      <point x="3587" y="970" type="line"/>
    </contour>
    <contour>
      <point x="233" y="1113" type="line"/>
      <point x="233" y="2" type="line"/>
      <point x="3436" y="2" type="line"/>
      <point x="3436" y="173" type="line"/>
      <point x="3585" y="322" type="line"/>
      <point x="3586" y="322" type="line"/>
      <point x="3586" y="1" type="line"/>
      <point x="3437" y="-148" type="line"/>
      <point x="83" y="-148" type="line"/>
      <point x="83" y="963" type="line"/>
      <point x="566" y="1449" type="line"/>
      <point x="716" y="1598" type="line"/>
      <point x="3583" y="1598" type="line"/>
      <point x="3583" y="972" type="line"/>
      <point x="3434" y="823" type="line"/>
      <point x="3433" y="823" type="line"/>
      <point x="3433" y="1448" type="line"/>
      <point x="567" y="1448" type="line"/>
    </contour>
  </outline>
</glyph>
<glyph name="E" format="2">
  <advance width="3527"/>
  <unicode hex="0045"/>
  <outline>
    <contour>
      <point x="3524" y="1602" type="line"/>
      <point x="377" y="1602" type="line"/>
      <point x="226" y="1451" type="line"/>
      <point x="226" y="-152" type="line"/>
      <point x="3374" y="-152" type="line"/>
      <point x="3525" y="-1" type="line"/>
      <point x="3525" y="524" type="line"/>
      <point x="3518" y="524" type="line"/>
      <point x="3367" y="373" type="line"/>
      <point x="3367" y="6" type="line"/>
      <point x="384" y="6" type="line"/>
      <point x="384" y="646" type="line"/>
      <point x="3060" y="646" type="line"/>
      <point x="3211" y="797" type="line"/>
      <point x="3211" y="804" type="line"/>
      <point x="384" y="804" type="line"/>
      <point x="384" y="1444" type="line"/>
      <point x="3366" y="1444" type="line"/>
      <point x="3366" y="926" type="line"/>
      <point x="3373" y="926" type="line"/>
      <point x="3524" y="1077" type="line"/>
    </contour>
    <contour>
      <point x="380" y="650" type="line"/>
      <point x="380" y="2" type="line"/>
      <point x="3371" y="2" type="line"/>
      <point x="3371" y="371" type="line"/>
      <point x="3520" y="520" type="line"/>
      <point x="3521" y="520" type="line"/>
      <point x="3521" y="1" type="line"/>
      <point x="3372" y="-148" type="line"/>
      <point x="230" y="-148" type="line"/>
      <point x="230" y="1449" type="line"/>
      <point x="379" y="1598" type="line"/>
      <point x="3520" y="1598" type="line"/>
      <point x="3520" y="1079" type="line"/>
      <point x="3371" y="930" type="line"/>
      <point x="3370" y="930" type="line"/>
      <point x="3370" y="1448" type="line"/>
      <point x="380" y="1448" type="line"/>
      <point x="380" y="800" type="line"/>
      <point x="3207" y="800" type="line"/>
      <point x="3207" y="799" type="line"/>
      <point x="3058" y="650" type="line"/>
    </contour>
  </outline>
</glyph>
<glyph name="F" format="2">
  <advance width="3838"/>
  <unicode hex="0046"/>
  <outline>
    <contour>
      <point x="230" y="-152" type="line"/>
      <point x="381" y="-1" type="line"/>
      <point x="381" y="645" type="line"/>
      <point x="3393" y="645" type="line"/>
      <point x="3544" y="796" type="line"/>
      <point x="3544" y="803" type="line"/>
      <point x="381" y="803" type="line"/>
      <point x="381" y="1444" type="line"/>
      <point x="3683" y="1444" type="line"/>
      <point x="3683" y="925" type="line"/>
      <point x="3690" y="925" type="line"/>
      <point x="3841" y="1076" type="line"/>
      <point x="3841" y="1602" type="line"/>
      <point x="374" y="1602" type="line"/>
      <point x="223" y="1451" type="line"/>
      <point x="223" y="-152" type="line"/>
    </contour>
    <contour>
      <point x="3687" y="1448" type="line"/>
      <point x="377" y="1448" type="line"/>
      <point x="377" y="799" type="line"/>
      <point x="3540" y="799" type="line"/>
      <point x="3540" y="798" type="line"/>
      <point x="3391" y="649" type="line"/>
      <point x="377" y="649" type="line"/>
      <point x="377" y="1" type="line"/>
      <point x="228" y="-148" type="line"/>
      <point x="227" y="-148" type="line"/>
      <point x="227" y="1449" type="line"/>
      <point x="376" y="1598" type="line"/>
      <point x="3837" y="1598" type="line"/>
      <point x="3837" y="1078" type="line"/>
      <point x="3688" y="929" type="line"/>
      <point x="3687" y="929" type="line"/>
    </contour>
  </outline>
</glyph>
<glyph name="G" format="2">
  <advance width="3825"/>
  <unicode hex="0047"/>
  <outline>
    <contour>
      <point x="3827" y="1602" type="line"/>
      <point x="722" y="1602" type="line"/>
      <point x="227" y="1115" type="line"/>
      <point x="227" y="1115" type="line"/>
      <point x="227" y="1115" type="line"/>
      <point x="76" y="965" type="line"/>
      <point x="76" y="-152" type="line"/>
      <point x="3677" y="-152" type="line"/>
      <point x="3828" y="-1" type="line"/>
      <point x="3828" y="804" type="line"/>
      <point x="2110" y="804" type="line"/>
      <point x="1959" y="653" type="line"/>
      <point x="1959" y="646" type="line"/>
      <point x="3670" y="646" type="line"/>
      <point x="3670" y="6" type="line"/>
      <point x="234" y="6" type="line"/>
      <point x="234" y="1109" type="line"/>
      <point x="576" y="1444" type="line"/>
      <point x="3669" y="1444" type="line"/>
      <point x="3669" y="927" type="line"/>
      <point x="3676" y="927" type="line"/>
      <point x="3827" y="1078" type="line"/>
    </contour>
    <contour>
      <point x="230" y="1111" type="line"/>
      <point x="230" y="2" type="line"/>
      <point x="3674" y="2" type="line"/>
      <point x="3674" y="650" type="line"/>
      <point x="1963" y="650" type="line"/>
      <point x="1963" y="651" type="line"/>
      <point x="2112" y="800" type="line"/>
      <point x="3824" y="800" type="line"/>
      <point x="3824" y="1" type="line"/>
      <point x="3675" y="-148" type="line"/>
      <point x="80" y="-148" type="line"/>
      <point x="80" y="963" type="line"/>
      <point x="229" y="1113" type="line"/>
      <point x="724" y="1598" type="line"/>
      <point x="3823" y="1598" type="line"/>
      <point x="3823" y="1080" type="line"/>
      <point x="3674" y="931" type="line"/>
      <point x="3673" y="931" type="line"/>
      <point x="3673" y="1448" type="line"/>
      <point x="574" y="1448" type="line"/>
    </contour>
  </outline>
</glyph>
<glyph name="H" format="2">
  <advance width="4069"/>
  <unicode hex="0048"/>
  <outline>
    <contour>
      <point x="230" y="-152" type="line"/>
      <point x="381" y="-1" type="line"/>
      <point x="381" y="646" type="line"/>
      <point x="3709" y="646" type="line"/>
      <point x="3709" y="-152" type="line"/>
      <point x="3716" y="-152" type="line"/>
      <point x="3867" y="-1" type="line"/>
      <point x="3867" y="1602" type="line"/>
      <point x="3860" y="1602" type="line"/>
      <point x="3709" y="1451" type="line"/>
      <point x="3709" y="804" type="line"/>
      <point x="381" y="804" type="line"/>
      <point x="381" y="1602" type="line"/>
      <point x="374" y="1602" type="line"/>
      <point x="223" y="1451" type="line"/>
      <point x="223" y="-152" type="line"/>
    </contour>
    <contour>
      <point x="3713" y="650" type="line"/>
      <point x="377" y="650" type="line"/>
      <point x="377" y="1" type="line"/>
      <point x="228" y="-148" type="line"/>
      <point x="227" y="-148" type="line"/>
      <point x="227" y="1449" type="line"/>
      <point x="376" y="1598" type="line"/>
      <point x="377" y="1598" type="line"/>
      <point x="377" y="800" type="line"/>
      <point x="3713" y="800" type="line"/>
      <point x="3713" y="1449" type="line"/>
      <point x="3862" y="1598" type="line"/>
      <point x="3863" y="1598" type="line"/>
      <point x="3863" y="1" type="line"/>
      <point x="3714" y="-148" type="line"/>
      <point x="3713" y="-148" type="line"/>
    </contour>
  </outline>
</glyph>
<glyph name="J" format="2">
  <advance width="3619"/>
  <unicode hex="004A"/>
  <outline>
    <contour>
      <point x="3418" y="-1" type="line"/>
      <point x="3418" y="1602" type="line"/>
      <point x="3411" y="1602" type="line"/>
      <point x="3260" y="1451" type="line"/>
      <point x="3260" y="6" type="line"/>
      <point x="176" y="6" type="line"/>
      <point x="176" y="702" type="line"/>
      <point x="169" y="702" type="line"/>
      <point x="18" y="551" type="line"/>
      <point x="17" y="-152" type="line"/>
      <point x="3267" y="-152" type="line"/>
    </contour>
    <contour>
      <point x="172" y="2" type="line"/>
      <point x="3264" y="2" type="line"/>
      <point x="3264" y="1449" type="line"/>
      <point x="3413" y="1598" type="line"/>
      <point x="3414" y="1598" type="line"/>
      <point x="3414" y="1" type="line"/>
      <point x="3265" y="-148" type="line"/>
      <point x="21" y="-148" type="line"/>
      <point x="22" y="549" type="line"/>
      <point x="171" y="698" type="line"/>
      <point x="172" y="698" type="line"/>
    </contour>
  </outline>
</glyph>
<glyph name="O" format="2">
  <advance width="3964"/>
  <unicode hex="004F"/>
  <outline>
    <contour>
      <point x="561" y="1451" type="line"/>
      <point x="561" y="1451" type="line"/>
      <point x="561" y="1451" type="line"/>
      <point x="76" y="965" type="line"/>
      <point x="76" y="-152" type="line"/>
      <point x="3274" y="-152" type="line"/>
      <point x="3757" y="327" type="line"/>
      <point x="3757" y="327" type="line"/>
      <point x="3757" y="327" type="line"/>
      <point x="3908" y="477" type="line"/>
      <point x="3908" y="1602" type="line"/>
      <point x="711" y="1602" type="line"/>
    </contour>
    <contour>
      <point x="80" y="-148" type="line"/>
      <point x="80" y="963" type="line"/>
      <point x="563" y="1449" type="line"/>
      <point x="713" y="1598" type="line"/>
      <point x="3904" y="1598" type="line"/>
      <point x="3904" y="479" type="line"/>
      <point x="3755" y="329" type="line"/>
      <point x="3272" y="-148" type="line"/>
    </contour>
    <contour>
      <point x="3422" y="2" type="line"/>
      <point x="3754" y="331" type="line"/>
      <point x="3754" y="1448" type="line"/>
      <point x="564" y="1448" type="line"/>
      <point x="230" y="1113" type="line"/>
      <point x="230" y="2" type="line"/>
    </contour>
    <contour>
      <point x="234" y="6" type="line"/>
      <point x="234" y="1111" type="line"/>
      <point x="566" y="1444" type="line"/>
      <point x="3750" y="1444" type="line"/>
      <point x="3750" y="333" type="line"/>
      <point x="3420" y="6" type="line"/>
    </contour>
  </outline>
</glyph>
<glyph name="P" format="2">
  <advance width="3740"/>
  <unicode hex="0050"/>
  <outline>
    <contour>
      <point x="231" y="-152" type="line"/>
      <point x="382" y="-1" type="line"/>
      <point x="382" y="506" type="line"/>
      <point x="3589" y="506" type="line"/>
      <point x="3740" y="657" type="line"/>
      <point x="3740" y="1602" type="line"/>
      <point x="375" y="1602" type="line"/>
      <point x="224" y="1451" type="line"/>
      <point x="224" y="-152" type="line"/>
    </contour>
    <contour>
      <point x="378" y="510" type="line"/>
      <point x="378" y="1" type="line"/>
      <point x="229" y="-148" type="line"/>
      <point x="228" y="-148" type="line"/>
      <point x="228" y="1449" type="line"/>
      <point x="377" y="1598" type="line"/>
      <point x="3736" y="1598" type="line"/>
      <point x="3736" y="659" type="line"/>
      <point x="3587" y="510" type="line"/>
    </contour>
    <contour>
      <point x="3586" y="660" type="line"/>
      <point x="3586" y="1448" type="line"/>
      <point x="378" y="1448" type="line"/>
      <point x="378" y="660" type="line"/>
    </contour>
    <contour>
      <point x="382" y="664" type="line"/>
      <point x="382" y="1444" type="line"/>
      <point x="3582" y="1444" type="line"/>
      <point x="3582" y="664" type="line"/>
    </contour>
  </outline>
</glyph>
<glyph name="Q" format="2">
  <advance width="4109"/>
  <unicode hex="0051"/>
  <outline>
    <contour>
      <point x="561" y="1451" type="line"/>
      <point x="561" y="1451" type="line"/>
      <point x="561" y="1451" type="line"/>
      <point x="76" y="965" type="line"/>
      <point x="76" y="-152" type="line"/>
      <point x="1916" y="-152" type="line"/>
      <point x="1916" y="-544" type="line"/>
      <point x="1923" y="-544" type="line"/>
      <point x="2074" y="-393" type="line"/>
      <point x="2074" y="-152" type="line"/>
      <point x="3757" y="-152" type="line"/>
      <point x="3908" y="-1" type="line"/>
      <point x="3908" y="1602" type="line"/>
      <point x="711" y="1602" type="line"/>
    </contour>
    <contour>
      <point x="1920" y="-148" type="line"/>
      <point x="80" y="-148" type="line"/>
      <point x="80" y="963" type="line"/>
      <point x="230" y="1114" type="line"/>
      <point x="230" y="2" type="line"/>
      <point x="3754" y="2" type="line"/>
      <point x="3754" y="1448" type="line"/>
      <point x="564" y="1448" type="line"/>
      <point x="238" y="1122" type="line"/>
      <point x="563" y="1449" type="line"/>
      <point x="713" y="1598" type="line"/>
      <point x="3904" y="1598" type="line"/>
      <point x="3904" y="1" type="line"/>
      <point x="3755" y="-148" type="line"/>
      <point x="2070" y="-148" type="line"/>
      <point x="2070" y="-391" type="line"/>
      <point x="1921" y="-540" type="line"/>
      <point x="1920" y="-540" type="line"/>
    </contour>
    <contour>
      <point x="234" y="6" type="line"/>
      <point x="234" y="1112" type="line"/>
      <point x="566" y="1444" type="line"/>
      <point x="3750" y="1444" type="line"/>
      <point x="3750" y="6" type="line"/>
    </contour>
  </outline>
</glyph>
<glyph name="S" format="2">
  <advance width="3665"/>
  <unicode hex="0053"/>
  <outline>
    <contour>
      <point x="3667" y="820" type="line"/>
      <point x="176" y="820" type="line"/>
      <point x="176" y="1112" type="line"/>
      <point x="507" y="1444" type="line"/>
      <point x="3497" y="1444" type="line"/>
      <point x="3497" y="1008" type="line"/>
      <point x="3505" y="1008" type="line"/>
      <point x="3656" y="1159" type="line"/>
      <point x="3656" y="1602" type="line"/>
      <point x="653" y="1602" type="line"/>
      <point x="503" y="1451" type="line"/>
      <point x="503" y="1451" type="line"/>
      <point x="503" y="1451" type="line"/>
      <point x="18" y="965" type="line"/>
      <point x="18" y="663" type="line"/>
      <point x="3509" y="663" type="line"/>
      <point x="3509" y="332" type="line"/>
      <point x="3180" y="6" type="line"/>
      <point x="177" y="6" type="line"/>
      <point x="177" y="481" type="line"/>
      <point x="171" y="481" type="line"/>
      <point x="20" y="330" type="line"/>
      <point x="20" y="-152" type="line"/>
      <point x="3033" y="-152" type="line"/>
      <point x="3516" y="327" type="line"/>
      <point x="3516" y="327" type="line"/>
      <point x="3516" y="327" type="line"/>
      <point x="3667" y="477" type="line"/>
    </contour>
    <contour>
      <point x="3501" y="1448" type="line"/>
      <point x="505" y="1448" type="line"/>
      <point x="201" y="1143" type="line"/>
      <point x="505" y="1449" type="line"/>
      <point x="655" y="1598" type="line"/>
      <point x="3652" y="1598" type="line"/>
      <point x="3652" y="1161" type="line"/>
      <point x="3503" y="1012" type="line"/>
      <point x="3501" y="1012" type="line"/>
    </contour>
    <contour>
      <point x="3513" y="667" type="line"/>
      <point x="22" y="667" type="line"/>
      <point x="22" y="963" type="line"/>
      <point x="172" y="1114" type="line"/>
      <point x="172" y="816" type="line"/>
      <point x="3663" y="816" type="line"/>
      <point x="3663" y="479" type="line"/>
      <point x="3514" y="329" type="line"/>
      <point x="3031" y="-148" type="line"/>
      <point x="24" y="-148" type="line"/>
      <point x="24" y="328" type="line"/>
      <point x="173" y="477" type="line"/>
      <point x="173" y="477" type="line"/>
      <point x="173" y="2" type="line"/>
      <point x="3182" y="2" type="line"/>
      <point x="3513" y="330" type="line"/>
    </contour>
  </outline>
</glyph>
<glyph name="T" format="2">
  <advance width="4064"/>
  <unicode hex="0054"/>
  <outline>
    <contour>
      <point x="4072" y="1602" type="line"/>
      <point x="163" y="1602" type="line"/>
      <point x="12" y="1451" type="line"/>
      <point x="12" y="1444" type="line"/>
      <point x="1963" y="1444" type="line"/>
      <point x="1963" y="-152" type="line"/>
      <point x="1970" y="-152" type="line"/>
      <point x="2121" y="-1" type="line"/>
      <point x="2121" y="1444" type="line"/>
      <point x="3921" y="1444" type="line"/>
      <point x="4072" y="1595" type="line"/>
    </contour>
    <contour>
      <point x="1967" y="1448" type="line"/>
      <point x="16" y="1448" type="line"/>
      <point x="16" y="1449" type="line"/>
      <point x="165" y="1598" type="line"/>
      <point x="4068" y="1598" type="line"/>
      <point x="4068" y="1597" type="line"/>
      <point x="3919" y="1448" type="line"/>
      <point x="2117" y="1448" type="line"/>
      <point x="2117" y="1" type="line"/>
      <point x="1968" y="-148" type="line"/>
      <point x="1967" y="-148" type="line"/>
    </contour>
  </outline>
</glyph>
<glyph name="U" format="2">
  <advance width="4023"/>
  <unicode hex="0055"/>
  <outline>
    <contour>
      <point x="3824" y="-1" type="line"/>
      <point x="3824" y="1602" type="line"/>
      <point x="3817" y="1602" type="line"/>
      <point x="3666" y="1451" type="line"/>
      <point x="3666" y="6" type="line"/>
      <point x="231" y="6" type="line"/>
      <point x="231" y="1602" type="line"/>
      <point x="224" y="1602" type="line"/>
      <point x="73" y="1451" type="line"/>
      <point x="73" y="-152" type="line"/>
      <point x="3673" y="-152" type="line"/>
    </contour>
    <contour>
      <point x="227" y="2" type="line"/>
      <point x="3670" y="2" type="line"/>
      <point x="3670" y="1449" type="line"/>
      <point x="3819" y="1598" type="line"/>
      <point x="3820" y="1598" type="line"/>
      <point x="3820" y="1" type="line"/>
      <point x="3671" y="-148" type="line"/>
      <point x="77" y="-148" type="line"/>
      <point x="77" y="1449" type="line"/>
      <point x="226" y="1598" type="line"/>
      <point x="227" y="1598" type="line"/>
    </contour>
  </outline>
</glyph>
<glyph name="V" format="2">
  <advance width="4024"/>
  <unicode hex="0056"/>
  <outline>
    <contour>
      <point x="220" y="-155" type="line"/>
      <point x="223" y="-152" type="line"/>
      <point x="3337" y="-152" type="line"/>
      <point x="3820" y="327" type="line"/>
      <point x="3820" y="327" type="line"/>
      <point x="3820" y="327" type="line"/>
      <point x="3977" y="484" type="line"/>
      <point x="3975" y="486" type="line"/>
      <point x="3967" y="479" type="line"/>
      <point x="3967" y="1605" type="line"/>
      <point x="3813" y="1451" type="line"/>
      <point x="3813" y="330" type="line"/>
      <point x="3482" y="2" type="line"/>
      <point x="374" y="2" type="line"/>
      <point x="374" y="1605" type="line"/>
      <point x="220" y="1451" type="line"/>
      <point x="220" y="-149" type="line"/>
      <point x="217" y="-152" type="line"/>
      <point x="220" y="-152" type="line"/>
    </contour>
    <contour>
      <point x="224" y="1449" type="line"/>
      <point x="370" y="1595" type="line"/>
      <point x="370" y="1" type="line"/>
      <point x="224" y="-145" type="line"/>
    </contour>
    <contour>
      <point x="3817" y="334" type="line"/>
      <point x="3817" y="1449" type="line"/>
      <point x="3963" y="1595" type="line"/>
      <point x="3963" y="480" type="line"/>
    </contour>
    <contour>
      <point x="227" y="-148" type="line"/>
      <point x="373" y="-2" type="line"/>
      <point x="3483" y="-2" type="line"/>
      <point x="3335" y="-148" type="line"/>
    </contour>
  </outline>
</glyph>
<glyph name="C.wide" format="2">
  <advance width="3777"/>
  <outline>
    <contour>
      <point x="3783" y="-1" type="line"/>
      <point x="3783" y="6" type="line"/>
      <point x="346" y="6" type="line"/>
      <point x="346" y="1107" type="line"/>
      <point x="679" y="1444" type="line"/>
      <point x="3631" y="1444" type="line"/>
      <point x="3782" y="1595" type="line"/>
      <point x="3782" y="1602" type="line"/>
      <point x="823" y="1602" type="line"/>
      <point x="673" y="1451" type="line"/>
      <point x="673" y="1451" type="line"/>
      <point x="673" y="1451" type="line"/>
      <point x="188" y="961" type="line"/>
      <point x="188" y="-152" type="line"/>
      <point x="3632" y="-152" type="line"/>
    </contour>
    <contour>
      <point x="342" y="1109" type="line"/>
      <point x="342" y="2" type="line"/>
      <point x="3779" y="2" type="line"/>
      <point x="3779" y="1" type="line"/>
      <point x="3630" y="-148" type="line"/>
      <point x="192" y="-148" type="line"/>
      <point x="192" y="959" type="line"/>
      <point x="675" y="1449" type="line"/>
      <point x="825" y="1598" type="line"/>
      <point x="3778" y="1598" type="line"/>
      <point x="3778" y="1597" type="line"/>
      <point x="3629" y="1448" type="line"/>
      <point x="677" y="1448" type="line"/>
    </contour>
  </outline>
</glyph>
<glyph name="E.wide" format="2">
  <advance width="3839"/>
  <outline>
    <contour>
      <point x="3841" y="-1" type="line"/>
      <point x="3841" y="6" type="line"/>
      <point x="381" y="6" type="line"/>
      <point x="381" y="646" type="line"/>
      <point x="3398" y="646" type="line"/>
      <point x="3549" y="797" type="line"/>
      <point x="3549" y="804" type="line"/>
      <point x="381" y="804" type="line"/>
      <point x="381" y="1444" type="line"/>
      <point x="3689" y="1444" type="line"/>
      <point x="3840" y="1595" type="line"/>
      <point x="3840" y="1602" type="line"/>
      <point x="374" y="1602" type="line"/>
      <point x="223" y="1451" type="line"/>
      <point x="223" y="-152" type="line"/>
      <point x="3690" y="-152" type="line"/>
    </contour>
    <contour>
      <point x="377" y="650" type="line"/>
      <point x="377" y="2" type="line"/>
      <point x="3837" y="2" type="line"/>
      <point x="3837" y="1" type="line"/>
      <point x="3688" y="-148" type="line"/>
      <point x="227" y="-148" type="line"/>
      <point x="227" y="1449" type="line"/>
      <point x="376" y="1598" type="line"/>
      <point x="3836" y="1598" type="line"/>
      <point x="3836" y="1597" type="line"/>
      <point x="3687" y="1448" type="line"/>
      <point x="377" y="1448" type="line"/>
      <point x="377" y="800" type="line"/>
      <point x="3545" y="800" type="line"/>
      <point x="3545" y="799" type="line"/>
      <point x="3396" y="650" type="line"/>
    </contour>
  </outline>
</glyph>
<glyph name="L.wide" format="2">
  <advance width="3496"/>
  <outline>
    <contour>
      <point x="3502" y="-1" type="line"/>
      <point x="3502" y="6" type="line"/>
      <point x="463" y="6" type="line"/>
      <point x="463" y="1602" type="line"/>
      <point x="456" y="1602" type="line"/>
      <point x="305" y="1451" type="line"/>
      <point x="305" y="-152" type="line"/>
      <point x="3351" y="-152" type="line"/>
    </contour>
    <contour>
      <point x="459" y="2" type="line"/>
      <point x="3498" y="2" type="line"/>
      <point x="3498" y="1" type="line"/>
      <point x="3349" y="-148" type="line"/>
      <point x="309" y="-148" type="line"/>
      <point x="309" y="1449" type="line"/>
      <point x="458" y="1598" type="line"/>
      <point x="459" y="1598" type="line"/>
    </contour>
  </outline>
</glyph>
<glyph name="R.wide" format="2">
  <advance width="3912"/>
  <outline>
    <contour>
      <point x="230" y="-152" type="line"/>
      <point x="381" y="-1" type="line"/>
      <point x="381" y="595" type="line"/>
      <point x="3009" y="595" type="line"/>
      <point x="3508" y="-152" type="line"/>
      <point x="3514" y="-152" type="line"/>
      <point x="3666" y="0" type="line"/>
      <point x="3269" y="595" type="line"/>
      <point x="3588" y="595" type="line"/>
      <point x="3739" y="746" type="line"/>
      <point x="3739" y="1602" type="line"/>
      <point x="374" y="1602" type="line"/>
      <point x="223" y="1451" type="line"/>
      <point x="223" y="-152" type="line"/>
    </contour>
    <contour>
      <point x="3011" y="599" type="line"/>
      <point x="377" y="599" type="line"/>
      <point x="377" y="1" type="line"/>
      <point x="228" y="-148" type="line"/>
      <point x="227" y="-148" type="line"/>
      <point x="227" y="1449" type="line"/>
      <point x="376" y="1598" type="line"/>
      <point x="3735" y="1598" type="line"/>
      <point x="3735" y="748" type="line"/>
      <point x="3586" y="599" type="line"/>
      <point x="3261" y="599" type="line"/>
      <point x="3660" y="0" type="line"/>
      <point x="3512" y="-148" type="line"/>
      <point x="3510" y="-148" type="line"/>
    </contour>
    <contour>
      <point x="3585" y="749" type="line"/>
      <point x="3585" y="1448" type="line"/>
      <point x="377" y="1448" type="line"/>
      <point x="377" y="749" type="line"/>
    </contour>
    <contour>
      <point x="381" y="753" type="line"/>
      <point x="381" y="1444" type="line"/>
      <point x="3581" y="1444" type="line"/>
      <point x="3581" y="753" type="line"/>
    </contour>
  </outline>
</glyph>
<glyph name="Y.wide" format="2">
  <advance width="4024"/>
  <outline>
    <contour>
      <point x="3845" y="-1" type="line"/>
      <point x="3845" y="1602" type="line"/>
      <point x="3837" y="1602" type="line"/>
      <point x="3686" y="1451" type="line"/>
      <point x="3686" y="804" type="line"/>
      <point x="250" y="804" type="line"/>
      <point x="250" y="1602" type="line"/>
      <point x="243" y="1602" type="line"/>
      <point x="92" y="1451" type="line"/>
      <point x="92" y="646" type="line"/>
      <point x="3686" y="646" type="line"/>
      <point x="3686" y="6" type="line"/>
      <point x="246" y="6" type="line"/>
      <point x="95" y="-145" type="line"/>
      <point x="95" y="-152" type="line"/>
      <point x="3694" y="-152" type="line"/>
    </contour>
    <contour>
      <point x="3690" y="2" type="line"/>
      <point x="3690" y="650" type="line"/>
      <point x="96" y="650" type="line"/>
      <point x="96" y="1449" type="line"/>
      <point x="245" y="1598" type="line"/>
      <point x="246" y="1598" type="line"/>
      <point x="246" y="800" type="line"/>
      <point x="3690" y="800" type="line"/>
      <point x="3690" y="1449" type="line"/>
      <point x="3839" y="1598" type="line"/>
      <point x="3841" y="1598" type="line"/>
      <point x="3841" y="1" type="line"/>
      <point x="3692" y="-148" type="line"/>
      <point x="99" y="-148" type="line"/>
      <point x="99" y="-147" type="line"/>
      <point x="248" y="2" type="line"/>
    </contour>
  </outline>
</glyph>
<glyph name="five.wide" format="2">
  <advance width="3689"/>
  <outline>
    <contour>
      <point x="3689" y="-1" type="line"/>
      <point x="3689" y="804" type="line"/>
      <point x="178" y="804" type="line"/>
      <point x="178" y="1444" type="line"/>
      <point x="3537" y="1444" type="line"/>
      <point x="3688" y="1595" type="line"/>
      <point x="3688" y="1602" type="line"/>
      <point x="171" y="1602" type="line"/>
      <point x="20" y="1451" type="line"/>
      <point x="20" y="646" type="line"/>
      <point x="3531" y="646" type="line"/>
      <point x="3531" y="6" type="line"/>
      <point x="172" y="6" type="line"/>
      <point x="21" y="-145" type="line"/>
      <point x="21" y="-152" type="line"/>
      <point x="3538" y="-152" type="line"/>
    </contour>
    <contour>
      <point x="3535" y="2" type="line"/>
      <point x="3535" y="650" type="line"/>
      <point x="24" y="650" type="line"/>
      <point x="24" y="1449" type="line"/>
      <point x="173" y="1598" type="line"/>
      <point x="3684" y="1598" type="line"/>
      <point x="3684" y="1597" type="line"/>
      <point x="3535" y="1448" type="line"/>
      <point x="174" y="1448" type="line"/>
      <point x="174" y="800" type="line"/>
      <point x="3685" y="800" type="line"/>
      <point x="3685" y="1" type="line"/>
      <point x="3536" y="-148" type="line"/>
      <point x="25" y="-148" type="line"/>
      <point x="25" y="-147" type="line"/>
      <point x="174" y="2" type="line"/>
    </contour>
  </outline>
</glyph>
<glyph name="nine.wide" format="2">
  <advance width="4166"/>
  <outline>
    <contour>
      <point x="3885" y="-1" type="line"/>
      <point x="3885" y="1602" type="line"/>
      <point x="391" y="1602" type="line"/>
      <point x="240" y="1451" type="line"/>
      <point x="240" y="646" type="line"/>
      <point x="3727" y="646" type="line"/>
      <point x="3727" y="6" type="line"/>
      <point x="392" y="6" type="line"/>
      <point x="241" y="-145" type="line"/>
      <point x="241" y="-152" type="line"/>
      <point x="3734" y="-152" type="line"/>
    </contour>
    <contour>
      <point x="3731" y="2" type="line"/>
      <point x="3731" y="650" type="line"/>
      <point x="244" y="650" type="line"/>
      <point x="244" y="1449" type="line"/>
      <point x="393" y="1598" type="line"/>
      <point x="3881" y="1598" type="line"/>
      <point x="3881" y="1" type="line"/>
      <point x="3732" y="-148" type="line"/>
      <point x="245" y="-148" type="line"/>
      <point x="245" y="-147" type="line"/>
      <point x="394" y="2" type="line"/>
    </contour>
    <contour>
      <point x="3731" y="800" type="line"/>
      <point x="3731" y="1448" type="line"/>
      <point x="394" y="1448" type="line"/>
      <point x="394" y="800" type="line"/>
    </contour>
    <contour>
      <point x="398" y="804" type="line"/>
      <point x="398" y="1444" type="line"/>
      <point x="3727" y="1444" type="line"/>
      <point x="3727" y="804" type="line"/>
    </contour>
  </outline>
</glyph>
<glyph name="seven.alt" format="2">
  <advance width="3694"/>
  <outline>
    <contour>
      <point x="3251" y="-152" type="line"/>
      <point x="3258" y="-152" type="line"/>
      <point x="3412" y="2" type="line"/>
      <point x="3405" y="2" type="line"/>
      <point x="3405" y="1598" type="line"/>
      <point x="337" y="1598" type="line"/>
      <point x="335" y="1596" type="line"/>
      <point x="335" y="1605" type="line"/>
      <point x="181" y="1451" type="line"/>
      <point x="181" y="749" type="line"/>
      <point x="188" y="749" type="line"/>
      <point x="342" y="903" type="line"/>
      <point x="335" y="903" type="line"/>
      <point x="335" y="1444" type="line"/>
      <point x="3251" y="1444" type="line"/>
    </contour>
    <contour>
      <point x="331" y="1448" type="line"/>
      <point x="331" y="899" type="line"/>
      <point x="332" y="899" type="line"/>
      <point x="186" y="753" type="line"/>
      <point x="185" y="753" type="line"/>
      <point x="185" y="1449" type="line"/>
      <point x="331" y="1595" type="line"/>
      <point x="331" y="1586" type="line"/>
      <point x="339" y="1594" type="line"/>
      <point x="3401" y="1594" type="line"/>
      <point x="3401" y="-2" type="line"/>
      <point x="3402" y="-2" type="line"/>
      <point x="3256" y="-148" type="line"/>
      <point x="3255" y="-148" type="line"/>
      <point x="3255" y="1448" type="line"/>
    </contour>
  </outline>
</glyph>
<glyph name="six.wide" format="2">
  <advance width="4089"/>
  <outline>
    <contour>
      <point x="3880" y="-1" type="line"/>
      <point x="3880" y="804" type="line"/>
      <point x="344" y="804" type="line"/>
      <point x="344" y="1112" type="line"/>
      <point x="676" y="1444" type="line"/>
      <point x="3728" y="1444" type="line"/>
      <point x="3879" y="1595" type="line"/>
      <point x="3879" y="1602" type="line"/>
      <point x="822" y="1602" type="line"/>
      <point x="186" y="966" type="line"/>
      <point x="186" y="-152" type="line"/>
      <point x="3729" y="-152" type="line"/>
    </contour>
    <contour>
      <point x="340" y="1114" type="line"/>
      <point x="340" y="800" type="line"/>
      <point x="3876" y="800" type="line"/>
      <point x="3876" y="1" type="line"/>
      <point x="3727" y="-148" type="line"/>
      <point x="190" y="-148" type="line"/>
      <point x="190" y="964" type="line"/>
      <point x="824" y="1598" type="line"/>
      <point x="3875" y="1598" type="line"/>
      <point x="3875" y="1597" type="line"/>
      <point x="3726" y="1448" type="line"/>
      <point x="674" y="1448" type="line"/>
    </contour>
    <contour>
      <point x="3726" y="2" type="line"/>
      <point x="3726" y="650" type="line"/>
      <point x="340" y="650" type="line"/>
      <point x="340" y="2" type="line"/>
    </contour>
    <contour>
      <point x="344" y="6" type="line"/>
      <point x="344" y="646" type="line"/>
      <point x="3722" y="646" type="line"/>
      <point x="3722" y="6" type="line"/>
    </contour>
  </outline>
</glyph>
